<svg height="40" version="1.1" viewBox="8 8 24 24" width="40" xmlns="http://www.w3.org/2000/svg">
<g fill="none" fill-rule="evenodd" stroke="none" stroke-width="40">

<g fill="#000" transform="translate(10.868 9.5)">
<path d="M15.2756713,14.5282239 L15.3257671,14.6092747 C15.5791982,15.015643 15.7945009,15.3810595 15.9716751,15.7055242 C16.4573716,16.5949956 17.1859164,17.9292028 18.1573095,19.7081456 C18.3884335,20.1314103 18.2326727,20.6618971 17.809408,20.8930211 C17.4143609,21.1087369 16.9259115,20.9874329 16.6746283,20.6261705 L16.6245324,20.5451196 C16.483022,20.2859671 16.3467032,20.0363221 16.215576,19.7961848 L2.05461848,19.796312 C1.92046514,20.0384606 1.78131859,20.2896221 1.63717882,20.5497963 C1.40347197,20.9716404 0.872042955,21.1241557 0.450198899,20.8904488 C0.0564777798,20.6723225 -0.102628099,20.194847 0.0679199832,19.7891782 L0.10954636,19.7034689 C1.13196805,17.8579838 1.89878432,16.47387 2.40999516,15.5511275 C2.57132006,15.2599339 2.71055379,15.0300862 2.82769637,14.8615844 C3.06140322,14.4397404 3.59283224,14.287225 4.01467629,14.5209319 C4.40839741,14.7390583 4.56750329,15.2165338 4.39695521,15.6222026 L4.35532883,15.7079118 C4.25599,15.8442775 4.13010908,16.0500232 3.97768606,16.3251488 C3.72217915,16.7863423 3.40391298,17.3608171 3.02288754,18.0485732 L15.2617597,18.0494309 C14.9429825,17.465644 14.6740142,16.9730739 14.4548548,16.5717204 C14.2741347,16.2407618 14.0535131,15.8656046 13.7929901,15.4462488 C13.5618661,15.0229841 13.7176269,14.4924972 14.1408916,14.2613732 C14.5359386,14.0456575 15.0243881,14.1669614 15.2756713,14.5282239 Z" fill-opacity=".6" opacity=".8"></path>
<path d="M10.0926215,-2.30926389e-14 C11.0220612,-2.3049404e-14 11.7819202,0.726061241 11.8359537,1.64193883 L14.1644524,1.64280028 C15.8204777,1.64280028 17.1951478,2.92219688 17.3138881,4.57395969 L18.05123,14.8309166 C18.1345894,15.9905068 17.2621321,16.9981165 16.1025419,17.081476 C16.052311,17.0850869 16.0019667,17.0868942 15.9516062,17.0868942 L2.31259102,17.0868942 C1.15000847,17.0868942 0.207549091,16.1444348 0.207549091,14.9818522 C0.207549091,14.9314917 0.209356309,14.8811475 0.212967256,14.8309166 L0.950309159,4.57395969 C1.06904944,2.92219688 2.44371957,1.64280028 4.09974481,1.64280028 L6.42854909,1.642 L6.4309599,1.60317278 C6.50381639,0.705657731 7.25528849,-2.29243197e-14 8.17157578,-2.30926389e-14 L10.0926215,-2.30926389e-14 Z M13.6213296,11.5688431 C12.8667938,11.5688431 12.2520047,12.1975149 12.2520047,12.9658649 C12.2520047,13.7342832 12.8667597,14.3630573 13.6213296,14.3630573 C14.3757288,14.3630573 14.990518,13.7342832 14.990518,12.9658649 C14.990518,12.1975149 14.3757288,11.5688431 13.6213296,11.5688431 Z M4.64245836,11.5688431 C3.88792264,11.5688431 3.27326989,12.1975149 3.27326989,12.9658649 C3.28725478,13.7342832 3.88792264,14.3630573 4.64245836,14.3630573 C5.39685763,14.3630573 6.01164682,13.7342832 6.01164682,12.9658649 C6.01164682,12.1975149 5.39685763,11.5688431 4.64245836,11.5688431 Z M3.80677302,3.99924581 L14.4575153,3.99924581 C15.0388066,3.99924581 15.5329354,4.4704755 15.5611829,5.05176678 L15.7304593,8.53522135 C15.7587068,9.11651263 15.2903113,9.58774232 14.6842687,9.58774232 L3.58001959,9.58774232 C2.97397702,9.58774232 2.50558157,9.11651263 2.53382907,8.53522135 L2.70310544,5.05176678 C2.73135293,4.4704755 3.22548174,3.99924581 3.80677302,3.99924581 Z"></path>
</g>
</g>
</svg>
