<?xml version="1.0" encoding="UTF-8"?>
<svg height="16px" version="1.1" viewbox="0 0 16 16" width="16px" xmlns="http://www.w3.org/2000/svg" xmlns:xlink="http://www.w3.org/1999/xlink">
<title>ic_label_recommend</title>
<g fill="none" fill-rule="evenodd" id="ic_label_recommend" stroke="none" stroke-width="1">
<path d="M7.79641326,11.6070319 L5.45479137,12.8380954 C5.02705236,13.0629711 4.49800359,12.8985179 4.27312789,12.4707789 C4.1835812,12.3004509 4.15268086,12.1053539 4.1852106,11.9156909 L4.63242058,9.30825665 C4.65676218,9.16633425 4.60970972,9.02152166 4.50659706,8.92101165 L2.61218516,7.07441643 C2.26613702,6.73710287 2.25905626,6.18312877 2.59636982,5.83708064 C2.73068985,5.69928246 2.90668946,5.60960618 3.09712186,5.58193473 L5.71513472,5.20151519 C5.85763291,5.18080899 5.98081786,5.09130989 6.04454499,4.96218462 L7.21535593,2.58986253 C7.42922544,2.15651558 7.95389805,1.97859396 8.387245,2.19246346 C8.55980603,2.27762742 8.69948011,2.4173015 8.78464407,2.58986253 L9.95545501,4.96218462 C10.0191821,5.09130989 10.1423671,5.18080899 10.2848653,5.20151519 L12.9028781,5.58193473 C13.3811049,5.65142514 13.7124512,6.09543764 13.6429608,6.57366439 C13.6152893,6.76409679 13.525613,6.9400964 13.3878148,7.07441643 L11.4934029,8.92101165 C11.3902903,9.02152166 11.3432378,9.16633425 11.3675794,9.30825665 L11.8147894,11.9156909 C11.8964803,12.3919853 11.5765909,12.8443218 11.1002965,12.9260127 C10.9106336,12.9585424 10.7155366,12.9276421 10.5452086,12.8380954 L8.20358674,11.6070319 C8.07613248,11.5400252 7.92386752,11.5400252 7.79641326,11.6070319 Z" fill="#000000" id="星形"></path>
</g>
</svg>