<?xml version="1.0" encoding="UTF-8"?>
<svg width="16px" height="16px" viewBox="0 0 16 16" version="1.1" xmlns="http://www.w3.org/2000/svg" xmlns:xlink="http://www.w3.org/1999/xlink">
    <title>ic_master_ai_traditionalbuilding</title>
    <defs>
        <path d="M14.225565,3.7566943 C14.2755428,3.73152647 14.3255207,3.78186213 14.3005317,3.83219778 C14.0756314,4.41105781 13.575853,5.59394569 11.4517946,5.59394569 L11.4517946,5.59394569 L11.4517946,6.65099443 L12.9011521,6.65099443 C13.9506868,6.65099443 14.9002659,6.29864485 15.4000443,6.07213441 C15.4500222,6.04696658 15.5,6.09730223 15.4750111,6.14763789 C15.3250775,6.55032313 15.0252105,7.30535794 14.0506425,7.65770753 L14.0506425,7.65770753 L14.0506425,13.0687904 L15.0252105,13.0687904 C15.2750997,13.0687904 15.5,13.2953008 15.5,13.5469791 C15.5,13.7986574 15.3000886,14 15.0501994,14 L15.0501994,14 L0.95644731,14 C0.706558089,14 0.506646712,13.7986574 0.506646712,13.5469791 C0.506646712,13.2953008 0.706558089,13.0939582 0.95644731,13.0939582 L0.95644731,13.0939582 L1.93101527,13.0939582 L1.93101527,7.65770753 C0.95644731,7.30535794 0.656580244,6.55032313 0.506646712,6.14763789 C0.481657789,6.09730223 0.531635634,6.04696658 0.581613478,6.07213441 C1.08139192,6.29864485 2.03097096,6.65099443 3.08050569,6.65099443 L3.08050569,6.65099443 L4.52986318,6.65099443 L4.52986318,5.59394569 C2.40580479,5.59394569 1.90602635,4.41105781 1.68112605,3.83219778 C1.65613713,3.78186213 1.70611497,3.73152647 1.75609282,3.7566943 C2.30584911,4.00837257 3.35538384,4.41105781 4.52986318,4.41105781 L4.52986318,4.41105781 L11.4517946,4.41105781 C12.601285,4.41105781 13.6758087,4.00837257 14.225565,3.7566943 Z M10.75,6.75 L5.5,6.75 L5.5,13.25 L10.75,13.25 L10.75,6.75 Z M4.5,7.75 L2.75,7.75 L2.75,13 L4.5,13 L4.5,7.75 Z M13.25,7.75 L11.5,7.75 L11.5,13 L13.25,13 L13.25,7.75 L13.25,7.75 Z M7.9011158,1.05667506 C7.9505579,0.981108312 8.0494421,0.981108312 8.0988842,1.05667506 L8.0988842,1.05667506 L8.32137364,1.45969773 C8.69218939,2.13979849 9.33493667,2.61838791 10.0765682,2.79471033 C10.6451523,2.92065491 11.3867838,3.0465995 12.3756258,3.09697733 C12.5239521,3.12216625 12.5486731,3.32367758 12.4003468,3.3488665 C12.0542521,3.42443325 11.5845522,3.5 11.0406891,3.5 L11.0406891,3.5 L4.95931091,3.5 C4.41544782,3.5 3.94574788,3.42443325 3.59965319,3.3488665 C3.45132689,3.32367758 3.47604794,3.12216625 3.62437424,3.09697733 C4.61321622,3.07178841 5.3548477,2.94584383 5.92343184,2.79471033 C6.66506333,2.59319899 7.30781061,2.11460957 7.67862636,1.45969773 L7.67862636,1.45969773 Z" id="path-1"></path>
    </defs>
    <g id="ic_master_ai_traditionalbuilding" stroke="none" stroke-width="1" fill="none" fill-rule="evenodd">
        <mask id="mask-2" fill="white">
            <use xlink:href="#path-1"></use>
        </mask>
        <use id="building" fill="#000000" fill-rule="nonzero" xlink:href="#path-1"></use>
        <g id="编组" mask="url(#mask-2)" fill="#000000" fill-rule="nonzero">
            <g id="ic/bg/white">
                <rect id="Rectangle-13-Copy" x="0" y="0" width="16" height="16"></rect>
            </g>
        </g>
    </g>
</svg>