<svg height="40" version="1.1" viewBox="8 8 24 24" width="40" xmlns="http://www.w3.org/2000/svg">
<g fill="none" fill-rule="evenodd" stroke="none" stroke-width="40">

<g fill="#000" transform="rotate(-8 118.267 -40.79)">
<path d="M15.1093876,2.2621526 L8.63985864,0.679684166 C8.60382413,0.670870004 8.56600723,0.672689896 8.53098561,0.684923546 L6.66902406,1.33533867 C6.56897511,1.37028749 6.51620103,1.4797248 6.55114984,1.57977374 C6.56514776,1.61984597 6.59203733,1.65414602 6.62760961,1.67730501 L10.7048073,4.33172454 L10.7048073,4.33172454 L15.1093876,2.2621526 Z" fill-opacity=".6"></path>
<path d="M19.3517463,0.505467214 C20.6542906,0.0566999916 24.1340991,0.987716152 24.5436714,1.89663936 C24.9493808,2.7925842 24.616351,3.84445214 23.7685804,4.344749 C23.6138537,4.43546976 23.4416656,4.50320995 23.2692037,4.55664208 L22.0012719,4.94252553 C21.7837645,5.00740134 21.5631643,5.07255811 21.3394713,5.13799584 L19.9602007,5.53399366 C19.4880728,5.66711675 19.003574,5.80136366 18.5067042,5.9367344 L12.8422104,14.0257744 C12.8221779,14.0543945 12.7952048,14.0770262 12.764189,14.0918001 L12.7149955,14.107834 L9.95164309,14.6268616 C9.91793557,14.6331927 9.88316735,14.630769 9.85066424,14.6198224 C9.76673342,14.5915556 9.71384755,14.513139 9.71414118,14.4291873 L9.7246784,14.3658828 L12.0048573,7.60194148 L10.2157615,8.03032399 L10.2157615,8.03032399 L7.39788169,8.68509217 L7.39788169,8.68509217 L5.42980435,9.12973393 L5.42980435,9.12973393 C5.18990714,9.18335428 4.94058659,9.13231913 4.74248057,8.99313751 L4.64797617,8.9162776 L0.122705569,4.67685584 L0.101420866,4.64563792 L0.101420866,4.64563792 C0.0837063684,4.60113508 0.105422612,4.55069796 0.149938504,4.53301624 L2.22630065,3.70117963 L2.22630065,3.70117963 C2.28482426,3.67822388 2.39735415,3.72190733 2.4544711,3.76943512 C2.55664371,3.85445432 2.68464684,3.94840145 2.82963119,4.04728705 L3.13961947,4.25046079 L3.13961947,4.25046079 L3.47915885,4.45971138 L3.47915885,4.45971138 L4.00946219,4.76946679 L4.00946219,4.76946679 L4.35405125,4.96288037 L4.35405125,4.96288037 L5.06949772,5.34888392 L5.06949772,5.34888392 L5.37968376,5.50690363 L5.37968376,5.50690363 L5.6134932,5.43108905 L5.6134932,5.43108905 L6.68327386,5.05965448 L6.68327386,5.05965448 L14.8729637,2.09060741 L14.8729637,2.09060741 L17.1831866,1.26443608 L17.1831866,1.26443608 L18.6524391,0.747812675 C18.8899863,0.665045013 19.1233488,0.584157285 19.3517463,0.505467214 Z" fill-rule="nonzero"></path>
</g>
</g>
</svg>
